<svg xmlns="http://www.w3.org/2000/svg" version="1.1" xmlns:xlink="http://www.w3.org/1999/xlink" xmlns:svgjs="http://svgjs.dev/svgjs" width="1500" height="1687" viewBox="0 0 1500 1687"><g transform="matrix(1,0,0,1,2.2737367544323206e-13,0)"><svg viewBox="0 0 320 360" data-background-color="#ffffff" preserveAspectRatio="xMidYMid meet" height="1687" width="1500" xmlns="http://www.w3.org/2000/svg" xmlns:xlink="http://www.w3.org/1999/xlink"><g id="tight-bounds" transform="matrix(1,0,0,1,0,0)"><svg viewBox="0 0 320 360" height="360" width="320"><g><svg></svg></g><g><svg viewBox="0 0 320 360" height="360" width="320"><g><path d="M20.961 227.22l3.726 4.658-1.863-6.056c-0.466-2.795-3.726 0.466-1.863 1.398M25.153 224.425c1.397 2.329 2.795 4.658 2.795 6.987 0 3.261 2.795 4.658 5.123 5.589-3.261-3.726-5.124-13.974-7.918-12.576M204.017 26.929c7.918 0 15.371-0.932 23.756 0.931 20.495 5.124 37.729 15.371 49.374 29.811l32.606 52.169c1.397 13.042 4.192 27.482 3.726 43.319 3.261 0 2.795-4.658 6.521-5.59-3.726 9.316-5.59 20.961-6.521 34.469-2.329-7.453 0-18.632 0.466-24.687-3.261 5.124-5.124 1.397-5.124-0.932 0.466-3.726-1.397-3.261-2.795-4.658-5.124-4.658-8.384-9.782-12.11-17.7 2.329-6.055 2.795-14.905-4.658-19.563-2.329-1.397-5.124-3.726-6.521-7.453-1.863-5.124-5.124-11.179-4.193-19.097 0.466-2.329-6.987 5.124-11.179 1.863-18.166-12.576-36.332-27.016-58.224-39.127-11.645 0-20.029-4.192-24.221-9.316-3.726-4.658-0.932-10.713 4.658-11.179 3.261 0 6.987-0.932 9.782 0.932 0.466-1.863 2.329-4.192 4.657-4.192M157.904 16.215l0.932 0.466c4.658 0.932 6.987 7.453 12.11 5.124 0 3.261 0.466 6.521-0.466 8.85-1.397 3.726-5.59 3.726-8.85 3.726-31.208-1.863-49.374 11.179-68.471 22.358-5.124 3.261-10.713 5.59-14.906 9.782-20.029 18.632-41.921 35.866-47.045 70.335l-4.192 38.195c-0.466 4.192-5.124 8.384-4.192 13.508l3.26 22.824c-3.261-3.261-5.124 0.932-4.192 2.795 0.466 1.397 2.329 6.055 5.124 1.863 3.726 6.987 7.453 20.495 12.576 26.55 15.837 18.632 36.332 35.4 53.101 52.169 4.192-0.932 7.453-0.932 8.384-3.727 1.397 2.795-1.397 5.59-3.726 6.056 7.453 4.658 15.837 8.85 27.016 9.781 14.44 0.932 27.948 3.261 40.524 6.522 6.521-1.863 13.042-2.795 20.029-3.261 2.329 0 3.726-3.726 6.521-4.658l0.466-4.658c2.795 4.192 2.329-1.397 0.466-4.192 3.261 2.795 4.192 5.124 5.589 6.987 0-1.397 3.726-6.521 3.727-0.466l0.931-6.055c1.397-0.932 1.863 5.124 3.261 0.931 1.397-4.192 4.192-0.932 6.987-2.329-0.932 1.863-0.466 5.59 2.794 3.261l3.727-3.261c2.329 5.59 6.055 3.261 7.918 2.329 20.495-13.042 40.99-28.413 60.553-43.784l-0.466 6.055 2.329-7.453c2.329 2.329 4.192 0.466 5.124-0.931 2.795-4.658 6.521-9.316 12.577-13.508-7.453 20.029-16.303 35.866-27.482 48.908l-4.658 5.59c0 3.261-0.932 7.453-4.658 7.918-1.863 0.466-5.59-0.932-8.384 1.863-1.397 1.863 3.261 5.59-0.466 2.795-3.261-2.329-6.521 0-10.248 0.932-2.795 0.932 1.863 3.726 2.795 5.589 0.932 1.863 1.863 3.726 1.398 6.056l-5.124-5.59c-6.055 3.261-9.782 9.316-14.906 13.974-2.329 1.863-1.397 5.124-1.397 7.918-3.261 0-6.987-0.932-8.85 0.932-1.397 1.863-0.932 4.658-0.932 7.453-4.658-0.466-5.124-7.453-9.315-6.056-4.192 0.932-8.85 1.397-12.577 3.727 2.795 5.59-4.658 2.329-3.726 3.26-6.987-4.192-13.042-7.453-20.495-4.658-15.837-5.124-35.4-2.795-49.84-0.931 0-2.329 0.466-4.658-0.466-5.124-0.932 2.329-3.726 1.397-3.26 1.397-8.85-6.055-17.7-9.782-27.016-14.905-8.384 0.932-16.303-3.261-18.632-5.59-6.521-6.055-13.974-2.795-20.029-4.192-13.042-3.261-17.7-16.769-19.098-26.084-0.932-4.658-4.658-6.521-6.055-6.056-6.055-19.563-15.371-37.263-22.824-55.429-1.863-4.658-1.397-9.316-1.397-14.44 2.329 0.932 4.658 0.466 4.192-2.794-2.329-15.371-7.918-27.016-13.974-38.195 3.261-15.837 3.726-34.469 11.179-48.443 6.521-12.576 18.632-19.098 27.016-29.811 2.795-3.726 2.795-8.85 5.59-12.11 9.316-9.316 18.632-19.098 28.879-27.482 4.658-3.726 10.247 0 17.234-1.397 2.329-8.384 11.645-15.837 20.495-13.508 3.726 0.932 11.179-8.85 13.508-9.782 3.726-1.397 1.863 3.726 1.863 6.987 8.85-6.987 20.961-10.713 32.14-14.906" fill="#1e55b3" fill-rule="nonzero" stroke="none" stroke-width="1" stroke-linecap="butt" stroke-linejoin="miter" stroke-miterlimit="10" stroke-dasharray="" stroke-dashoffset="0" font-family="none" font-weight="none" font-size="none" text-anchor="none" style="mix-blend-mode: normal" data-fill-palette-color="tertiary"></path></g><g transform="matrix(1,0,0,1,64,154.87899351131804)"><svg viewBox="0 0 192 50.242012977363906" height="50.242012977363906" width="192"><g><svg viewBox="0 0 192 50.242012977363906" height="50.242012977363906" width="192"><g><svg viewBox="0 0 192 50.242012977363906" height="50.242012977363906" width="192"><g><svg viewBox="0 0 192 50.242012977363906" height="50.242012977363906" width="192"><g id="textblocktransform"><svg viewBox="0 0 192 50.242012977363906" height="50.242012977363906" width="192" id="textblock"><g><svg viewBox="0 0 192 50.242012977363906" height="50.242012977363906" width="192"><g transform="matrix(1,0,0,1,0,0)"><svg width="192" viewBox="-2.9113628444420003 -16 112.15136284444199 29.35" height="50.242012977363906" data-palette-color="#1e55b3"><path d="M2.85 0.55L2.85 0.55Q0.85 0.55-0.68-0.23-2.2-1-2.9-3.1L-2.9-3.1Q-2.95-3.3-2.78-3.35-2.6-3.4-2.55-3.15L-2.55-3.15Q-2.05-2.05-1.25-1.6-0.45-1.15 0.5-1.15L0.5-1.15Q2.1-1.15 3.33-2.1 4.55-3.05 5.53-4.5 6.5-5.95 7.28-7.48 8.05-9 8.75-10.1L8.75-10.1Q9.85-11.95 11.38-13.45 12.9-14.95 14.15-15.3L14.15-15.3Q13.85-15.45 13.4-15.45L13.4-15.45Q12.15-15.45 10.65-14.7 9.15-13.95 7.63-12.75 6.1-11.55 4.67-10.23 3.25-8.9 2.08-7.78 0.9-6.65 0.2-6L0.2-6Q-0.2-5.65-0.4-5.65L-0.4-5.65Q-0.6-5.65-0.6-5.85L-0.6-5.85Q-0.6-6.15-0.35-6.4L-0.35-6.4Q1.15-7.7 2.75-9.33 4.35-10.95 6-12.48 7.65-14 9.35-15 11.05-16 12.8-16L12.8-16Q13-16 13.18-16 13.35-16 13.55-15.95L13.55-15.95Q14.1-15.9 14.58-15.65 15.05-15.4 14.85-15.3L14.85-15.3Q13.7-14.8 13.05-13.3 12.4-11.8 11.85-9.8 11.3-7.8 10.53-5.75 9.75-3.7 8.3-2.1L8.3-2.1Q9-2.35 10.5-3.25 12-4.15 13.8-5.48 15.6-6.8 17.15-8.4L17.15-8.4Q17.35-8.6 17.55-8.6L17.55-8.6Q17.8-8.6 17.8-8.35L17.8-8.35Q17.8-8.15 17.6-7.95L17.6-7.95Q16.25-6.65 14.6-5.18 12.95-3.7 11.03-2.4 9.1-1.1 7.05-0.28 5 0.55 2.85 0.55ZM30.3 1.95L30.3 1.95Q29.65 1.7 29.02 1.05 28.4 0.4 28.4-1.2L28.4-1.2Q28.4-2.55 28.85-4.03 29.3-5.5 30-6.95L30-6.95Q28.7-5.3 27.17-3.7 25.65-2.1 24.12-1.07 22.6-0.05 21.3-0.05L21.3-0.05Q20.2-0.05 19.47-0.65 18.75-1.25 18.75-2.5L18.75-2.5Q18.75-3.4 19.1-4.45L19.1-4.45Q19.45-5.5 20.35-6.8 21.25-8.1 22.32-9.38 23.4-10.65 24.2-11.55L24.2-11.55Q24.75-12.2 24.75-12.6L24.75-12.6Q24.75-13.1 24.2-13.1L24.2-13.1Q23.6-13.1 22.5-12.3L22.5-12.3Q21.35-11.45 20.05-10.23 18.75-9 17.6-7.88 16.45-6.75 15.65-6.1L15.65-6.1Q15.5-5.95 15.35-5.95L15.35-5.95Q15.1-5.95 15.1-6.25L15.1-6.25Q15.1-6.5 15.55-6.9L15.55-6.9Q17.75-8.8 19.2-10.38 20.65-11.95 22.05-13.05L22.05-13.05Q22.8-13.65 23.6-13.93 24.4-14.2 25.1-14.2L25.1-14.2Q26.3-14.2 27.1-13.5 27.9-12.8 27.9-11.55L27.9-11.55Q27.9-10.6 27.4-9.55L27.4-9.55Q26.85-8.3 25.92-7.08 25-5.85 24.15-4.7L24.15-4.7Q23.5-3.75 23.2-3.15 22.9-2.55 22.9-2.25L22.9-2.25Q22.9-1.85 23.3-1.85L23.3-1.85Q23.7-1.85 24.45-2.3 25.2-2.75 26-3.45L26-3.45Q26.55-3.95 26.97-4.38 27.4-4.8 27.6-5L27.6-5Q28.75-6.2 29.9-7.58 31.05-8.95 31.9-10.1L31.9-10.1Q32.55-10.95 32.92-11.4 33.3-11.85 33.75-12.35L33.75-12.35Q34.6-13.3 35.55-13.35L35.55-13.35Q36.1-13.35 36.82-13.13 37.55-12.9 38.25-12.25L38.25-12.25Q37.75-11.55 36.77-10.33 35.8-9.1 34.67-7.63 33.55-6.15 32.52-4.6 31.5-3.05 30.85-1.7 30.2-0.35 30.2 0.65L30.2 0.65Q30.2 1.35 30.6 1.75L30.6 1.75Q30.8 1.95 30.6 1.98 30.4 2 30.3 1.95ZM33.85 13.35L33.85 13.35Q30.8 13.35 28.8 12.65 26.8 11.95 25.6 10.75L25.6 10.75Q24.8 9.9 24.1 8.53 23.4 7.15 23.4 6.2L23.4 6.2Q23.4 5.85 23.55 5.85L23.55 5.85Q23.9 5.85 24 6.25L24 6.25Q24 6.4 24.32 7.4 24.65 8.4 25.5 9.6 26.35 10.8 28 11.7 29.65 12.6 32.3 12.6L32.3 12.6Q35.45 12.6 37.95 11.13 40.45 9.65 42.42 7.28 44.4 4.9 46.05 2.1 47.7-0.7 49.2-3.4 50.7-6.1 52.25-8.15L52.25-8.15Q51.6-7.45 50.62-6.43 49.65-5.4 48.55-4.35 47.45-3.3 46.45-2.45 45.45-1.6 44.8-1.2L44.8-1.2Q43.7-0.55 42.72-0.25 41.75 0.05 40.95 0.05L40.95 0.05Q39.4 0.05 38.55-0.93 37.7-1.9 37.7-3.45L37.7-3.45Q37.7-4.9 38.47-6.65 39.25-8.4 40.95-10.2L40.95-10.2Q42.7-12.1 45.3-13.28 47.9-14.45 50.25-14.45L50.25-14.45Q51.1-14.45 51.9-14.28 52.7-14.1 53.35-13.7L53.35-13.7Q54.25-13.15 54.67-12.68 55.1-12.2 55.3-11.55L55.3-11.55Q55.6-11.55 56.25-11.28 56.9-11 57.45-10.63 58-10.25 58-9.85L58-9.85Q58-9.65 57.6-9.4L57.6-9.4Q56.6-8.9 55.35-7.03 54.1-5.15 52.57-2.58 51.05 0 49.17 2.78 47.3 5.55 45 7.95 42.7 10.35 39.92 11.85 37.15 13.35 33.85 13.35ZM42.35-1.25L42.35-1.25Q43.35-1.25 44.8-2.25L44.8-2.25Q45.9-3 47.2-4.13 48.5-5.25 49.75-6.5 51-7.75 51.9-8.8L51.9-8.8Q53.55-10.7 53.55-11.9L53.55-11.9Q53.55-12.9 52.35-12.9L52.35-12.9Q51.15-12.9 49.05-11.75L49.05-11.75Q47.85-11.1 46.5-9.9 45.15-8.7 43.97-7.3 42.8-5.9 42.1-4.7L42.1-4.7Q41.3-3.25 41.3-2.35L41.3-2.35Q41.3-1.25 42.35-1.25ZM61.44 0.05L61.44 0.05Q59.89 0.05 59.04-0.93 58.19-1.9 58.19-3.45L58.19-3.45Q58.19-4.9 58.97-6.65 59.74-8.4 61.44-10.2L61.44-10.2Q63.19-12.1 65.79-13.28 68.39-14.45 70.74-14.45L70.74-14.45Q72.64-14.45 73.99-13.63 75.34-12.8 75.79-11.55L75.79-11.55Q76.34-11.55 77.17-11.25 77.99-10.95 77.99-10.15L77.99-10.15Q77.99-9.6 77.44-8.9L77.44-8.9Q77.09-8.4 76.22-7.4 75.34-6.4 74.59-5.25L74.59-5.25Q73.99-4.35 73.64-3.58 73.29-2.8 73.29-2.25L73.29-2.25Q73.29-1.5 74.04-1.5L74.04-1.5Q74.89-1.5 76.59-2.45L76.59-2.45Q78.44-3.5 80.14-4.85 81.84-6.2 82.79-7L82.79-7Q83.04-7.2 83.14-7.2L83.14-7.2Q83.34-7.2 83.34-6.95L83.34-6.95Q83.34-6.65 83.09-6.4L83.09-6.4Q82.64-6 81.34-4.9 80.04-3.8 78.37-2.6 76.69-1.4 75.09-0.65L75.09-0.65Q74.29-0.3 73.62-0.13 72.94 0.05 72.39 0.05L72.39 0.05Q71.04 0.05 70.34-0.73 69.64-1.5 69.64-2.75L69.64-2.75Q69.64-3.25 69.79-3.8 69.94-4.35 70.14-4.9L70.14-4.9 70.49-5.75Q69.19-4.15 67.89-3.08 66.59-2 65.29-1.2L65.29-1.2Q64.19-0.55 63.22-0.25 62.24 0.05 61.44 0.05ZM62.99-1.25L62.99-1.25Q63.89-1.25 65.59-2.33 67.29-3.4 69.54-5.65L69.54-5.65Q69.84-5.95 70.67-6.73 71.49-7.5 72.44-8.47 73.39-9.45 74.07-10.43 74.74-11.4 74.74-12.05L74.74-12.05Q74.74-13 73.09-13L73.09-13Q71.64-13 69.62-11.88 67.59-10.75 65.74-8.55L65.74-8.55Q63.84-6.3 62.97-4.67 62.09-3.05 62.09-2.2L62.09-2.2Q62.09-1.25 62.99-1.25ZM82.24 0.25L82.24 0.25Q81.74 0.25 81.04 0.03 80.34-0.2 79.64-0.8L79.64-0.8Q80.19-1.55 81.22-2.83 82.24-4.1 83.39-5.65 84.54-7.2 85.54-8.75L85.54-8.75Q84.74-7.95 83.79-7.05 82.84-6.15 81.89-5.4L81.89-5.4Q81.69-5.25 81.49-5.25L81.49-5.25Q81.29-5.25 81.29-5.45L81.29-5.45Q81.29-5.75 81.74-6.15L81.74-6.15Q83.14-7.4 84.82-8.95 86.49-10.5 87.29-12.2L87.29-12.2Q87.54-12.8 87.54-13.3L87.54-13.3Q87.54-13.95 87.29-14.1L87.29-14.1Q87.09-14.25 87.09-14.5L87.09-14.5Q87.09-14.95 87.54-14.95L87.54-14.95Q87.79-14.95 87.94-14.85L87.94-14.85Q88.49-14.6 88.99-13.9 89.49-13.2 89.49-11.75L89.49-11.75Q89.49-10.4 88.94-8.75L88.94-8.75Q89.49-9.6 90.04-10.38 90.59-11.15 91.09-11.8L91.09-11.8Q92.09-13.1 93.22-13.78 94.34-14.45 95.19-14.45L95.19-14.45Q96.59-14.45 96.59-12.85L96.59-12.85Q96.59-11.95 95.99-10.5L95.99-10.5Q95.44-9.25 94.49-7.5L94.49-7.5Q95.34-8.65 96.22-9.7 97.09-10.75 97.74-11.45L97.74-11.45Q99.19-12.9 100.52-13.55 101.84-14.2 102.94-14.2L102.94-14.2Q104.24-14.2 105.02-13.48 105.79-12.75 105.79-11.5L105.79-11.5Q105.79-10.6 105.34-9.55L105.34-9.55Q105.04-8.95 104.34-7.95 103.64-6.95 102.84-5.85 102.04-4.75 101.49-3.85 100.94-2.95 100.94-2.55L100.94-2.55Q100.94-2.05 101.49-2.05L101.49-2.05Q102.34-2.05 103.44-2.8L103.44-2.8Q104.74-3.7 106.24-4.95 107.74-6.2 108.69-7L108.69-7Q108.89-7.2 109.04-7.2L109.04-7.2Q109.24-7.2 109.24-6.95L109.24-6.95Q109.24-6.65 108.99-6.4L108.99-6.4Q108.24-5.7 107.07-4.65 105.89-3.6 104.54-2.55 103.19-1.5 101.89-0.78 100.59-0.05 99.59-0.05L99.59-0.05Q98.29-0.05 97.47-0.65 96.64-1.25 96.64-2.55L96.64-2.55Q96.64-3.4 96.99-4.45L96.99-4.45Q97.34-5.5 98.39-6.93 99.44-8.35 100.64-9.73 101.84-11.1 102.64-12L102.64-12Q103.24-12.7 103.24-13.05L103.24-13.05Q103.24-13.5 102.64-13.5L102.64-13.5Q101.94-13.5 100.57-12.75 99.19-12 97.64-10.35L97.64-10.35Q96.64-9.3 95.62-7.7 94.59-6.1 93.79-4.48 92.99-2.85 92.54-1.6L92.54-1.6Q92.19-0.7 91.24-0.7L91.24-0.7Q90.74-0.7 90.32-1 89.89-1.3 90.09-1.65L90.09-1.65Q91.34-3.85 92.57-6 93.79-8.15 94.79-10.5L94.79-10.5Q95.49-12.05 95.49-12.85L95.49-12.85Q95.49-13.55 94.89-13.55L94.89-13.55Q94.29-13.55 93.27-12.83 92.24-12.1 91.49-11.2L91.49-11.2Q90.29-9.8 89.19-8.08 88.09-6.35 87.29-4.95L87.29-4.95Q86.64-3.9 85.94-2.9 85.24-1.9 84.39-1L84.39-1Q83.29 0.25 82.24 0.25Z" opacity="1" transform="matrix(1,0,0,1,0,0)" fill="#1e55b3" class="wordmark-text-0" data-fill-palette-color="primary" id="text-0"></path></svg></g></svg></g></svg></g></svg></g><g></g></svg></g></svg></g></svg></g></svg></g><defs></defs></svg><rect width="320" height="360" fill="none" stroke="none" visibility="hidden"></rect></g></svg></g></svg>